# xmcd
#
# Track frame offsets: 
#        150
#        12082
#        21852
#        32887
#        41402
#        52320
#        62935
#        71207
#        82575
#        91477
#        106610
#        114220
#        123262
#        133310
#        144407
#        154567
#
# Disc length: 2184 seconds
#
# Revision: 3
# Processed by: cddbd v1.5.2PL0 Copyright (c) Steve Scherf et al.
# Submitted via: ExactAudioCopy v1.0b3
#
DISCID=d0088610
DTITLE=Various Artist - The Essential Bluegrass Collection_CD1
DYEAR=2002
DGENRE=Bluegrass
TTITLE0=The Osborne Borthers - Georgia Mules And Country Boys
TTITLE1=Crossroads - Remembering
TTITLE2=Benny Martin - Muleskinner Blues
TTITLE3=Benny Martin - Who's Gonna Hold You When I'm Gone
TTITLE4=Joe Maphis and His Super Picker Pals - Orange Blossom Special
TTITLE5=Josh Graves - Little Maggie
TTITLE6=Carl Story and His Rambling Mountaineers - I'm Rollin' On
TTITLE7=Lester Flatt and The Nashville Grass - Goin' Up Cripple Creek
TTITLE8=Carl Story and His Rambling Mountaineers - Buck Creek
TTITLE9=Benny Martin - Wabash Cannonball
TTITLE10=The Jones Brothers and The Log Cabin Boys - Billy Boy
TTITLE11=Lester Flatt and The Nashville Grass - Dixie Flyer
TTITLE12=Mac Wiseman and The Shanandoah Cut-Ups - Wreck Of The Old 97
TTITLE13=Don Reno and Bill Harrell and The Tennessee Cut-Ups - Long Gone
TTITLE14=Arthur Smith - Conversation With A Mule
TTITLE15=The Stonemans - Soldier's Joy
EXTD=
EXTT0=
EXTT1=
EXTT2=
EXTT3=
EXTT4=
EXTT5=
EXTT6=
EXTT7=
EXTT8=
EXTT9=
EXTT10=
EXTT11=
EXTT12=
EXTT13=
EXTT14=
EXTT15=
PLAYORDER=
